<svg width="54" height="54" viewBox="0 0 54 54" fill="none" xmlns="http://www.w3.org/2000/svg">
<circle cx="27" cy="27" r="27" fill="#FDFDFD"/>
<path d="M34.3186 30.4497C34.3186 31.7839 34.6982 32.3159 35.6908 32.3159C37.9032 32.3159 39.312 29.4968 39.312 24.8083C39.312 17.6422 34.0899 14.2116 27.5702 14.2116C20.8631 14.2116 14.7626 18.7095 14.7626 27.2097C14.7626 35.3288 20.0991 39.7505 28.2944 39.7505C31.077 39.7505 32.9448 39.4455 35.802 38.4926L36.4151 41.0449C33.5943 41.9613 30.5799 42.2265 28.2563 42.2265C17.5071 42.2265 11.7498 36.3183 11.7498 27.2082C11.7498 18.0218 18.4219 11.7705 27.6083 11.7705C37.1758 11.7705 42.2439 17.4882 42.2439 24.5018C42.2439 30.4482 40.3777 34.9842 34.5076 34.9842C31.8378 34.9842 30.0859 33.9169 29.8572 31.552C29.1711 34.1821 27.3415 34.9842 24.8622 34.9842C21.546 34.9842 18.7634 32.4287 18.7634 27.2844C18.7634 22.1004 21.2045 18.8985 25.588 18.8985C27.9132 18.8985 29.3617 19.8133 30.0065 21.2618L31.1135 19.2416H34.3154V30.4497H34.3186ZM29.6317 25.4182C29.6317 23.3233 28.0673 22.445 26.7713 22.445C25.3609 22.445 23.7997 23.587 23.7997 26.9429C23.7997 29.6112 24.9813 31.0977 26.7713 31.0977C28.0292 31.0977 29.6317 30.2973 29.6317 28.0864V25.4182Z" fill="#1F1F1F"/>
</svg>
