<svg width="53" height="53" viewBox="0 0 53 53" fill="none" xmlns="http://www.w3.org/2000/svg">
<path d="M26.5 1.06006C12.4497 1.06006 1.06 12.4498 1.06 26.5001C1.06 40.5504 12.4497 51.9401 26.5 51.9401C40.5503 51.9401 51.94 40.5504 51.94 26.5001C51.94 12.4498 40.5503 1.06006 26.5 1.06006ZM20.2725 37.0444H15.1209V20.466H20.2725V37.0444ZM17.6649 18.4308C16.0378 18.4308 14.9857 17.2781 14.9857 15.8524C14.9857 14.3975 16.0696 13.2792 17.7311 13.2792C19.3927 13.2792 20.4103 14.3975 20.4421 15.8524C20.4421 17.2781 19.3927 18.4308 17.6649 18.4308ZM39.0875 37.0444H33.9359V27.8569C33.9359 25.7183 33.1886 24.2661 31.3256 24.2661C29.9026 24.2661 29.0572 25.2493 28.6836 26.1953C28.5458 26.5319 28.5113 27.0089 28.5113 27.4832V37.0418H23.3571V25.7528C23.3571 23.6831 23.2908 21.9527 23.2219 20.4634H27.6978L27.9336 22.7662H28.037C28.7154 21.685 30.3769 20.0897 33.1568 20.0897C36.5461 20.0897 39.0875 22.3608 39.0875 27.2421V37.0444Z" fill="#FDFDFD"/>
</svg>
