<svg width="54" height="54" viewBox="0 0 54 54" fill="none" xmlns="http://www.w3.org/2000/svg">
<path d="M27 0C12.0883 0 0 12.0883 0 27C0 41.9117 12.0883 54 27 54C41.9117 54 54 41.9117 54 27C54 12.0883 41.9117 0 27 0ZM17.2969 10.7249C17.8532 10.692 18.356 11.0246 18.7372 11.6147L22.4286 18.6152C22.8173 19.4447 22.5964 20.3329 22.0166 20.9256L20.3258 22.6164C20.2215 22.7594 20.1528 22.9205 20.1511 23.0976C20.7995 25.6075 22.7664 27.9226 24.5018 29.5147C26.2371 31.1068 28.1022 33.2624 30.5233 33.773C30.8226 33.8565 31.1892 33.8864 31.4033 33.6874L33.3677 31.6868C34.0457 31.1729 35.0267 30.9238 35.7506 31.344H35.7836L42.4445 35.276C43.4223 35.8889 43.5236 37.0735 42.8235 37.7941L38.2357 42.3457C37.5582 43.0405 36.6581 43.2741 35.7836 43.2752C31.916 43.1593 28.2615 41.261 25.2599 39.3102C20.3328 35.7258 15.8133 31.2801 12.976 25.9091C11.8878 23.6568 10.6095 20.7831 10.7315 18.2692C10.7424 17.3235 10.9982 16.397 11.6642 15.7874L16.2521 11.1996C16.6095 10.8954 16.9631 10.7446 17.2969 10.7249Z" fill="#FDFDFD"/>
</svg>
