<svg width="54" height="60" viewBox="0 0 54 60" fill="none" xmlns="http://www.w3.org/2000/svg">
<path d="M0.964286 52.915C0.365039 53.487 0.342958 54.4365 0.914967 55.0357C1.48698 55.635 2.43647 55.6571 3.03571 55.085L0.964286 52.915ZM52.8459 55.2387C53.5301 54.7715 53.7059 53.8382 53.2387 53.1541C52.7715 52.47 51.8382 52.2941 51.1541 52.7613L52.8459 55.2387ZM3.03571 55.085C4.07506 54.0929 5.34526 52.432 6.73701 50.3978C8.14712 48.3367 9.74261 45.8015 11.4336 42.9924C14.8163 37.3728 18.6141 30.6021 22.1265 24.2236C25.658 17.8103 28.8591 11.8705 31.1331 7.75696C32.2672 5.70533 33.1384 4.16728 33.6746 3.3016C33.8076 3.08682 33.9105 2.92906 33.9852 2.82212C34.0863 2.67738 34.074 2.71626 33.9826 2.79852C33.9518 2.82619 33.8718 2.89566 33.7499 2.96428C33.6532 3.01872 33.357 3.17333 32.9417 3.14614C32.4081 3.11119 31.9944 2.80282 31.7727 2.43599C31.5996 2.14973 31.5744 1.88676 31.568 1.80055C31.5597 1.68863 31.5676 1.60523 31.5712 1.57256C31.5755 1.5338 31.5805 1.50922 31.5815 1.50433C31.5832 1.49584 31.5798 1.51385 31.5633 1.56899L34.4367 2.43104C34.4671 2.32992 34.4975 2.21854 34.5204 2.10677C34.5368 2.02659 34.5777 1.81999 34.5597 1.57826C34.5514 1.46614 34.5211 1.1836 34.34 0.88402C34.1102 0.503868 33.6855 0.188419 33.1378 0.15255C32.7084 0.124436 32.3951 0.284275 32.2783 0.350006C32.1364 0.429918 32.0334 0.516734 31.9767 0.567721C31.7815 0.743244 31.6189 0.970844 31.5257 1.1043C31.4061 1.27555 31.2706 1.48548 31.1242 1.72187C30.5426 2.66088 29.6364 4.26345 28.5075 6.30557C26.2554 10.3796 22.9879 16.4397 19.4985 22.7765C15.9901 29.1479 12.215 35.8772 8.86331 41.4452C7.18708 44.2298 5.62502 46.7102 4.26104 48.7038C2.87869 50.7243 1.75827 52.1571 0.964286 52.915L3.03571 55.085ZM31.5633 1.56899C31.1495 2.94815 30.0877 8.3301 29.2349 15.1996C28.3782 22.1003 27.714 30.6434 28.1398 38.3577C28.3526 42.2145 28.8401 45.9109 29.734 49.1124C30.6229 52.2963 31.9479 55.1154 33.9224 57.089C35.9522 59.1179 38.5904 60.1702 41.831 59.8967C44.9936 59.6297 48.64 58.1111 52.8459 55.2387L51.1541 52.7613C47.16 55.489 44.0158 56.7016 41.5787 56.9073C39.2198 57.1064 37.4494 56.3727 36.0432 54.9672C34.5818 53.5065 33.4435 51.2428 32.6235 48.3056C31.8083 45.386 31.3411 41.923 31.1352 38.1924C30.7235 30.7317 31.3656 22.3872 32.212 15.5692C33.0623 8.71992 34.1005 3.55187 34.4367 2.43104L31.5633 1.56899Z" fill="#1F1F1F"/>
<path d="M8 30C12.3333 35 24 42.5 36 32.5" stroke="#1F1F1F" stroke-width="3" stroke-linecap="round"/>
</svg>
